<?xml version="1.0" encoding="UTF-8" standalone="no"?>
<!-- Created with Inkscape (http://www.inkscape.org/) -->

<svg
   xmlns:dc="http://purl.org/dc/elements/1.1/"
   xmlns:cc="http://creativecommons.org/ns#"
   xmlns:rdf="http://www.w3.org/1999/02/22-rdf-syntax-ns#"
   xmlns:svg="http://www.w3.org/2000/svg"
   xmlns="http://www.w3.org/2000/svg"
   version="1.1"
   width="1572.6154"
   height="382.00876"
   viewBox="0 0 1572.6154 382.00876"
   id="svg3393">
  <metadata
     id="metadata3399">
    <rdf:RDF>
      <cc:Work
         rdf:about="">
        <dc:format>image/svg+xml</dc:format>
        <dc:type
           rdf:resource="http://purl.org/dc/dcmitype/StillImage" />
        <dc:title></dc:title>
      </cc:Work>
    </rdf:RDF>
  </metadata>
  <defs
     id="defs3397" />
  <g
     id="text3403"
     style="font-size:151.25px;font-style:normal;font-variant:normal;font-weight:bold;font-stretch:normal;line-height:125%;letter-spacing:-5px;word-spacing:0px;fill:#b22234;fill-opacity:1;stroke:none;font-family:Helvetica Black;-inkscape-font-specification:Helvetica Black">
    <path
       d="m 43.42582,9.2451551 -33.42582,0 0,108.8985949 34.18206,0 0,-34.484553 -1.361233,-24.804681 38.87075,59.289234 33.425823,0 0,-108.8985949 -34.182063,0 0,34.6358039 1.361232,24.804681 z"
       id="path3026"
       style="font-weight:900;font-family:Helvetica Black;-inkscape-font-specification:Helvetica Black" />
    <path
       d="m 222.80354,118.14375 0,-25.40967 -55.20554,0 0,-17.09103 44.92068,0 0,-25.409673 -44.92068,0 0,-15.578549 53.08807,0 0,-25.4096729 -88.78261,0 0,108.8985949 z"
       id="path3028"
       style="font-weight:900;font-family:Helvetica Black;-inkscape-font-specification:Helvetica Black" />
    <path
       d="m 315.00546,9.2451551 -29.49337,0 -13.00734,67.3053839 -0.30249,0 -12.25109,-67.3053839 -34.48456,0 27.0734,108.8985949 35.08955,0 12.40234,-63.221683 0.3025,0 12.55358,63.221683 35.08955,0 27.0734,-108.8985949 -34.48455,0 -12.2511,67.3053839 -0.30249,0 z"
       id="path3030"
       style="font-weight:900;font-family:Helvetica Black;-inkscape-font-specification:Helvetica Black" />
  </g>
  <g
     id="text3409"
     style="font-size:40px;font-style:normal;font-variant:normal;font-weight:bold;font-stretch:normal;line-height:125%;letter-spacing:-5px;word-spacing:0px;fill:#b22234;fill-opacity:1;stroke:none;font-family:NeueHaasGroteskDisp Pro;-inkscape-font-specification:NeueHaasGroteskDisp Pro Bold">
    <path
       d="m 45.69454,246.26213 0,-38.26576 39.021998,0 0,-25.40967 -39.021998,0 0,-19.81349 49.00437,0 0,-25.40968 -84.69891,0 0,108.8986 z"
       id="path3001"
       style="font-size:151.25px;font-weight:900;fill:#b22234;font-family:Helvetica Black;-inkscape-font-specification:Helvetica Black" />
    <path
       d="m 139.75859,162.77321 16.63729,0 c 4.23803,-0.009 7.67261,0.91702 10.30377,2.77918 2.63101,1.86232 3.98594,4.71712 4.06479,8.56442 -0.0158,3.73715 -1.45899,6.3966 -4.32948,7.97833 -2.87063,1.58187 -7.07406,2.35071 -12.6103,2.30654 l -14.06607,0 z m 10.88986,45.52566 c 8.0728,-0.10079 13.32866,1.27304 15.76761,4.12151 2.4388,2.84853 3.53534,7.7767 3.28964,14.7845 0.0188,4.87776 0.2079,8.96145 0.56719,12.25109 0.35913,3.28965 0.77507,5.55836 1.24779,6.80616 l 36.14828,0 0,-3.32746 c -2.01044,0.0945 -3.17001,-1.30451 -3.4787,-4.19713 -0.30891,-2.89261 -0.40974,-7.84598 -0.3025,-14.86012 -0.0505,-10.53377 -1.68904,-17.56049 -4.91556,-21.0802 -3.22673,-3.51962 -7.73896,-6.12235 -13.5367,-7.80818 6.32081,-1.84643 10.95908,-5.14868 13.91482,-9.90675 2.95553,-4.75794 4.41759,-10.32891 4.3862,-16.71291 0.25827,-10.55576 -3.24564,-18.37024 -10.51175,-23.44344 -7.2663,-5.07301 -19.84508,-7.59381 -37.73638,-7.56241 l -51.42434,0 0,108.8986 35.69454,0 0,-37.96326 z"
       id="path3003"
       style="font-size:151.25px;font-weight:900;fill:#b22234;font-family:Helvetica Black;-inkscape-font-specification:Helvetica Black" />
    <path
       d="m 270.02785,161.10948 c 7.78921,0.12927 13.38538,3.23616 16.78854,9.32066 3.40299,6.08465 5.06672,13.01055 4.99118,20.7777 0.0692,9.17891 -1.58188,16.64678 -4.95337,22.40362 -3.37165,5.7569 -8.87959,8.72514 -16.52385,8.90473 -8.36596,-0.43482 -14.05666,-3.91352 -17.07213,-10.43612 -3.01555,-6.52253 -4.4335,-13.47994 -4.25385,-20.87223 -0.13553,-7.2756 1.34544,-14.01244 4.44291,-20.21052 3.09739,-6.19794 8.62424,-9.49388 16.58057,-9.88784 z m 0.3025,-26.61966 c -17.19821,0.21438 -30.93656,5.34421 -41.2151,15.38949 -10.27858,10.04548 -15.54704,23.72081 -15.80542,41.02603 0.23947,18.63821 5.47013,32.97525 15.69199,43.01117 10.22182,10.03594 23.99798,15.10904 41.32853,15.21933 16.4765,-0.0977 30.0321,-5.12037 40.66682,-15.06808 10.63451,-9.9477 16.13616,-24.23432 16.50494,-42.85992 0.0139,-9.74703 -2.04756,-18.90593 -6.18436,-27.47673 -4.13703,-8.57063 -10.43342,-15.54484 -18.8892,-20.92265 -8.45598,-5.3776 -19.15536,-8.15048 -32.0982,-8.31864 z"
       id="path3005"
       style="font-size:151.25px;font-weight:900;fill:#b22234;font-family:Helvetica Black;-inkscape-font-specification:Helvetica Black" />
    <path
       d="m 372.11782,137.36353 -33.42582,0 0,108.8986 34.18206,0 0,-34.48456 -1.36123,-24.80468 38.87075,59.28924 33.42582,0 0,-108.8986 -34.18206,0 0,34.63581 1.36123,24.80468 z"
       id="path3007"
       style="font-size:151.25px;font-weight:900;fill:#b22234;font-family:Helvetica Black;-inkscape-font-specification:Helvetica Black" />
    <path
       d="m 453.7893,165.94941 32.06459,0 0,80.31272 35.69454,0 0,-80.31272 32.06459,0 0,-28.58588 -99.82372,0 z"
       id="path3009"
       style="font-size:151.25px;font-weight:900;fill:#b22234;font-family:Helvetica Black;-inkscape-font-specification:Helvetica Black" />
    <path
       d="m 600.59176,246.26213 0,-108.8986 -35.69454,0 0,108.8986 z"
       id="path3011"
       style="font-size:151.25px;font-weight:900;fill:#b22234;font-family:Helvetica Black;-inkscape-font-specification:Helvetica Black" />
    <path
       d="m 709.58392,246.26213 0,-25.40967 -55.20554,0 0,-17.09103 44.92068,0 0,-25.40967 -44.92068,0 0,-15.57855 53.08807,0 0,-25.40968 -88.78261,0 0,108.8986 z"
       id="path3013"
       style="font-size:151.25px;font-weight:900;fill:#b22234;font-family:Helvetica Black;-inkscape-font-specification:Helvetica Black" />
    <path
       d="m 756.41142,162.77321 16.63729,0 c 4.23803,-0.009 7.67262,0.91702 10.30377,2.77918 2.63101,1.86232 3.98594,4.71712 4.06479,8.56442 -0.0158,3.73715 -1.45899,6.3966 -4.32947,7.97833 -2.87064,1.58187 -7.07407,2.35071 -12.61031,2.30654 l -14.06607,0 z m 10.88986,45.52566 c 8.0728,-0.10079 13.32867,1.27304 15.76761,4.12151 2.4388,2.84853 3.53535,7.7767 3.28965,14.7845 0.0188,4.87776 0.20789,8.96145 0.56718,12.25109 0.35914,3.28965 0.77507,5.55836 1.24779,6.80616 l 36.14829,0 0,-3.32746 c -2.01045,0.0945 -3.17002,-1.30451 -3.47871,-4.19713 -0.30891,-2.89261 -0.40974,-7.84598 -0.30249,-14.86012 -0.0505,-10.53377 -1.68905,-17.56049 -4.91557,-21.0802 -3.22673,-3.51962 -7.73895,-6.12235 -13.5367,-7.80818 6.32082,-1.84643 10.95909,-5.14868 13.91482,-9.90675 2.95553,-4.75794 4.4176,-10.32891 4.3862,-16.71291 0.25827,-10.55576 -3.24564,-18.37024 -10.51174,-23.44344 -7.26631,-5.07301 -19.84509,-7.59381 -37.73639,-7.56241 l -51.42434,0 0,108.8986 35.69454,0 0,-37.96326 z"
       id="path3015"
       style="font-size:151.25px;font-weight:900;fill:#b22234;font-family:Helvetica Black;-inkscape-font-specification:Helvetica Black" />
    <path
       d="m 925.24894,168.97438 c -1.17542,-9.77433 -5.47969,-17.9039 -12.91281,-24.38876 -7.43329,-6.48465 -18.65714,-9.84991 -33.67159,-10.0958 -13.87705,0.003 -25.14502,2.90849 -33.80394,8.71567 -8.65897,5.8074 -13.12078,14.49785 -13.38545,26.07138 0.32612,10.18804 3.5874,17.69845 9.78386,22.53124 6.19642,4.8329 13.37124,8.25015 21.52448,10.25178 8.15317,2.00171 15.32799,3.84977 21.52449,5.54418 6.19638,1.69449 9.45766,4.4973 9.78386,8.40845 -0.0599,2.58385 -1.41487,4.56267 -4.06479,5.93648 -2.65006,1.37386 -6.23589,2.06708 -10.75752,2.07967 -1.76461,2e-5 -3.52917,-0.22685 -5.29368,-0.68062 -1.76461,-0.45372 -3.37792,-1.13434 -4.83994,-2.04185 -1.52197,-0.90746 -2.78867,-2.07963 -3.8001,-3.51652 -1.01152,-1.43683 -1.71104,-3.13836 -2.09857,-5.10462 l -34.18206,0 c 0.54511,10.12104 5.08885,18.65394 13.63123,25.59873 8.54233,6.94481 20.08129,10.56216 34.6169,10.85205 15.22557,0.0158 27.46404,-3.07852 36.71546,-9.28285 9.25124,-6.20431 14.00295,-15.61319 14.25513,-28.22666 -0.32623,-9.70819 -3.58752,-16.90192 -9.78386,-21.58121 -6.19653,-4.67918 -13.37135,-8.03499 -21.52449,-10.06745 -8.15328,-2.03233 -15.3281,-3.93238 -21.52449,-5.70016 -6.19649,-1.76764 -9.45777,-4.59408 -9.78385,-8.47934 -0.019,-1.97875 0.88854,-3.50384 2.72246,-4.57526 1.83384,-1.07126 4.70755,-1.61323 8.62114,-1.62591 1.7456,-0.003 3.39672,0.15448 4.95338,0.47265 1.55653,0.31833 2.98078,0.81619 4.27275,1.49357 1.3013,0.66809 2.40415,1.60079 3.30855,2.79809 0.90427,1.19746 1.51557,2.73515 1.83389,4.61307 z"
       id="path3017"
       style="font-size:151.25px;font-weight:900;fill:#b22234;font-family:Helvetica Black;-inkscape-font-specification:Helvetica Black" />
    <path
       d="m 969.50522,246.26213 0,-36.90452 -0.75624,-16.93979 -1.51248,-16.03229 0.3025,0 19.81349,69.8766 24.80471,0 19.8135,-69.8766 0.3025,0 -1.815,19.66225 -0.4538,16.93978 0,33.27457 32.0646,0 0,-108.8986 -43.1057,0 -19.20847,67.91038 -19.2085,-67.91038 -43.1057,0 0,108.8986 z"
       id="path3019"
       style="font-size:151.25px;font-weight:900;fill:#b22234;font-family:Helvetica Black;-inkscape-font-specification:Helvetica Black" />
    <path
       d="m 1136.0767,209.20636 -22.536,0 11.0412,-39.022 z m -33.4258,37.05577 4.0837,-14.36856 35.5433,0 4.2349,14.36856 35.5433,0 -39.022,-108.8986 -36.2995,0 -39.022,108.8986 z"
       id="path3021"
       style="font-size:151.25px;font-weight:900;fill:#b22234;font-family:Helvetica Black;-inkscape-font-specification:Helvetica Black" />
    <path
       d="m 1222.484,137.36353 -33.4258,0 0,108.8986 34.1821,0 0,-34.48456 -1.3613,-24.80468 38.8708,59.28924 33.4258,0 0,-108.8986 -34.1821,0 0,34.63581 1.3613,24.80468 z"
       id="path3023"
       style="font-size:151.25px;font-weight:900;fill:#b22234;font-family:Helvetica Black;-inkscape-font-specification:Helvetica Black" />
  </g>
  <path
     d="m 111,314.75004 97.40292,0 -78.78989,57.25873 30.12787,-92.67079 30.12786,92.67079 z"
     id="path3483"
     style="fill:#3c3b6e;fill-opacity:1" />
  <path
     d="m 10,314.75004 97.40292,0 -78.78989,57.25873 30.127874,-92.67079 30.12786,92.67079 z"
     id="path3483-9"
     style="fill:#3c3b6e;fill-opacity:1" />
  <path
     d="m 212,314.75004 97.40292,0 -78.78989,57.25873 30.12787,-92.67079 30.12786,92.67079 z"
     id="path3483-90"
     style="fill:#3c3b6e;fill-opacity:1" />
  <path
     d="m 313,314.75004 97.40292,0 -78.78989,57.25873 30.12787,-92.67079 30.12786,92.67079 z"
     id="path3483-6"
     style="fill:#3c3b6e;fill-opacity:1" />
  <rect
     width="1143"
     height="37"
     x="419.61539"
     y="279.33798"
     id="rect3548"
     style="fill:#b22234;fill-opacity:1" />
  <rect
     width="1143"
     height="37"
     x="419.61539"
     y="335.00876"
     id="rect3548-1"
     style="fill:#b22234;fill-opacity:1" />
</svg>
